<?xml version="1.0" encoding="UTF-8" standalone="no"?>
<!DOCTYPE svg PUBLIC "-//W3C//DTD SVG 1.1//EN"
 "http://www.w3.org/Graphics/SVG/1.1/DTD/svg11.dtd">
<!-- Generated by graphviz version 2.47.0 (20210316.0004)
 -->
<!-- Title: dependencies Pages: 1 -->
<svg width="792pt" height="355pt"
 viewBox="0.00 0.00 792.00 355.00" xmlns="http://www.w3.org/2000/svg" xmlns:xlink="http://www.w3.org/1999/xlink">
<g id="graph0" class="graph" transform="scale(1 1) rotate(0) translate(4 351)">
<title>dependencies</title>
<polygon fill="white" stroke="transparent" points="-4,4 -4,-351 788,-351 788,4 -4,4"/>
<text text-anchor="start" x="371.01" y="-42.4" font-family="Times-12" font-weight="bold" font-size="14.00">Legend</text>
<polygon fill="#ffffb3" stroke="transparent" points="158,-10 158,-30 178,-30 178,-10 158,-10"/>
<text text-anchor="start" x="181.63" y="-15.4" font-family="Times-12" font-size="14.00"> &#160;Declarations</text>
<polygon fill="#8dd3c7" stroke="transparent" points="271,-10 271,-30 291,-30 291,-10 271,-10"/>
<text text-anchor="start" x="294.73" y="-15.4" font-family="Times-12" font-size="14.00"> &#160;Module</text>
<polygon fill="#80b1d3" stroke="transparent" points="357,-10 357,-30 377,-30 377,-10 357,-10"/>
<text text-anchor="start" x="380.78" y="-15.4" font-family="Times-12" font-size="14.00"> &#160;Bootstrap</text>
<polygon fill="#fdb462" stroke="transparent" points="454,-10 454,-30 474,-30 474,-10 454,-10"/>
<text text-anchor="start" x="477.67" y="-15.4" font-family="Times-12" font-size="14.00"> &#160;Providers</text>
<polygon fill="#fb8072" stroke="transparent" points="550,-10 550,-30 570,-30 570,-10 550,-10"/>
<text text-anchor="start" x="573.73" y="-15.4" font-family="Times-12" font-size="14.00"> &#160;Exports</text>
<g id="clust1" class="cluster">
<title>cluster_AppModule</title>
<polygon fill="none" stroke="black" stroke-dasharray="1,5" points="83,-146 83,-339 556,-339 556,-146 83,-146"/>
</g>
<g id="clust3" class="cluster">
<title>cluster_AppModule_imports</title>
<polygon fill="none" stroke="black" points="229,-154 229,-274 548,-274 548,-154 229,-154"/>
</g>
<g id="clust6" class="cluster">
<title>cluster_AppModule_providers</title>
<polygon fill="none" stroke="black" points="91,-222 91,-274 221,-274 221,-222 91,-222"/>
</g>
<g id="clust7" class="cluster">
<title>cluster_AuthModule</title>
<polygon fill="none" stroke="black" stroke-dasharray="1,5" points="564,-146 564,-214 714,-214 714,-146 564,-146"/>
</g>
<g id="clust12" class="cluster">
<title>cluster_AuthModule_providers</title>
<polygon fill="none" stroke="black" points="572,-154 572,-206 706,-206 706,-154 572,-154"/>
</g>
<g id="clust19" class="cluster">
<title>cluster_PostsModule</title>
<polygon fill="none" stroke="black" stroke-dasharray="1,5" points="458,-70 458,-138 776,-138 776,-70 458,-70"/>
</g>
<g id="clust24" class="cluster">
<title>cluster_PostsModule_providers</title>
<polygon fill="none" stroke="black" points="466,-78 466,-130 768,-130 768,-78 466,-78"/>
</g>
<g id="clust25" class="cluster">
<title>cluster_UsersModule</title>
<polygon fill="none" stroke="black" stroke-dasharray="1,5" points="8,-70 8,-138 450,-138 450,-70 8,-70"/>
</g>
<g id="clust28" class="cluster">
<title>cluster_UsersModule_exports</title>
<polygon fill="none" stroke="black" points="332,-78 332,-130 442,-130 442,-78 332,-78"/>
</g>
<g id="clust30" class="cluster">
<title>cluster_UsersModule_providers</title>
<polygon fill="none" stroke="black" points="16,-78 16,-130 324,-130 324,-78 16,-78"/>
</g>
<!-- AuthModule -->
<g id="node1" class="node">
<title>AuthModule</title>
<polygon fill="#8dd3c7" stroke="black" points="471.55,-266 468.55,-270 447.55,-270 444.55,-266 384.45,-266 384.45,-230 471.55,-230 471.55,-266"/>
<text text-anchor="middle" x="428" y="-243.8" font-family="Times,serif" font-size="14.00">AuthModule</text>
</g>
<!-- AppModule -->
<g id="node5" class="node">
<title>AppModule</title>
<polygon fill="#8dd3c7" stroke="black" points="386.66,-331 383.66,-335 362.66,-335 359.66,-331 303.34,-331 303.34,-295 386.66,-295 386.66,-331"/>
<text text-anchor="middle" x="345" y="-308.8" font-family="Times,serif" font-size="14.00">AppModule</text>
</g>
<!-- AuthModule&#45;&gt;AppModule -->
<g id="edge1" class="edge">
<title>AuthModule&#45;&gt;AppModule</title>
<path fill="none" stroke="black" d="M384.27,-254C376.02,-254 369.91,-254 369.91,-254 369.91,-254 369.91,-284.98 369.91,-284.98"/>
<polygon fill="black" stroke="black" points="366.41,-284.98 369.91,-294.98 373.41,-284.98 366.41,-284.98"/>
</g>
<!-- CoreModule -->
<g id="node2" class="node">
<title>CoreModule</title>
<polygon fill="#8dd3c7" stroke="black" points="323.26,-198 320.26,-202 299.26,-202 296.26,-198 236.74,-198 236.74,-162 323.26,-162 323.26,-198"/>
<text text-anchor="middle" x="280" y="-175.8" font-family="Times,serif" font-size="14.00">CoreModule</text>
</g>
<!-- CoreModule&#45;&gt;AppModule -->
<g id="edge2" class="edge">
<title>CoreModule&#45;&gt;AppModule</title>
<path fill="none" stroke="black" d="M316.64,-198.21C316.64,-198.21 316.64,-284.58 316.64,-284.58"/>
<polygon fill="black" stroke="black" points="313.14,-284.58 316.64,-294.58 320.14,-284.58 313.14,-284.58"/>
</g>
<!-- PostsModule -->
<g id="node3" class="node">
<title>PostsModule</title>
<polygon fill="#8dd3c7" stroke="black" points="539.61,-198 536.61,-202 515.61,-202 512.61,-198 450.39,-198 450.39,-162 539.61,-162 539.61,-198"/>
<text text-anchor="middle" x="495" y="-175.8" font-family="Times,serif" font-size="14.00">PostsModule</text>
</g>
<!-- PostsModule&#45;&gt;AppModule -->
<g id="edge3" class="edge">
<title>PostsModule&#45;&gt;AppModule</title>
<path fill="none" stroke="black" d="M505.66,-198.21C505.66,-234.64 505.66,-313 505.66,-313 505.66,-313 396.79,-313 396.79,-313"/>
<polygon fill="black" stroke="black" points="396.79,-309.5 386.79,-313 396.79,-316.5 396.79,-309.5"/>
</g>
<!-- UsersModule -->
<g id="node4" class="node">
<title>UsersModule</title>
<polygon fill="#8dd3c7" stroke="black" points="432.92,-198 429.92,-202 408.92,-202 405.92,-198 341.08,-198 341.08,-162 432.92,-162 432.92,-198"/>
<text text-anchor="middle" x="387" y="-175.8" font-family="Times,serif" font-size="14.00">UsersModule</text>
</g>
<!-- UsersModule&#45;&gt;AuthModule -->
<g id="edge6" class="edge">
<title>UsersModule&#45;&gt;AuthModule</title>
<path fill="none" stroke="black" d="M408.47,-198.22C408.47,-198.22 408.47,-219.73 408.47,-219.73"/>
<polygon fill="black" stroke="black" points="404.97,-219.73 408.47,-229.73 411.97,-219.73 404.97,-219.73"/>
</g>
<!-- UsersModule&#45;&gt;AppModule -->
<g id="edge4" class="edge">
<title>UsersModule&#45;&gt;AppModule</title>
<path fill="none" stroke="black" d="M355.6,-198.21C355.6,-198.21 355.6,-284.58 355.6,-284.58"/>
<polygon fill="black" stroke="black" points="352.1,-284.58 355.6,-294.58 359.1,-284.58 352.1,-284.58"/>
</g>
<!-- UsersService  -->
<g id="node10" class="node">
<title>UsersService </title>
<polygon fill="#fb8072" stroke="black" points="433.85,-122 340.15,-122 340.15,-86 433.85,-86 433.85,-122"/>
<text text-anchor="middle" x="387" y="-99.8" font-family="Times,serif" font-size="14.00">UsersService </text>
</g>
<!-- UsersModule&#45;&gt;UsersService  -->
<g id="edge10" class="edge">
<title>UsersModule&#45;&gt;UsersService </title>
<path fill="none" stroke="black" stroke-dasharray="5,2" d="M402.24,-161.99C402.24,-161.99 402.24,-132.15 402.24,-132.15"/>
<polygon fill="black" stroke="black" points="405.74,-132.15 402.24,-122.15 398.74,-132.15 405.74,-132.15"/>
</g>
<!-- AppService -->
<g id="node6" class="node">
<title>AppService</title>
<ellipse fill="#fdb462" stroke="black" cx="156" cy="-248" rx="56.74" ry="18"/>
<text text-anchor="middle" x="156" y="-243.8" font-family="Times,serif" font-size="14.00">AppService</text>
</g>
<!-- AppService&#45;&gt;AppModule -->
<g id="edge5" class="edge">
<title>AppService&#45;&gt;AppModule</title>
<path fill="none" stroke="black" d="M209.4,-242C253.85,-242 309.91,-242 309.91,-242 309.91,-242 309.91,-284.72 309.91,-284.72"/>
<polygon fill="black" stroke="black" points="306.41,-284.72 309.91,-294.72 313.41,-284.72 306.41,-284.72"/>
</g>
<!-- AuthService -->
<g id="node7" class="node">
<title>AuthService</title>
<ellipse fill="#fdb462" stroke="black" cx="639" cy="-180" rx="59.11" ry="18"/>
<text text-anchor="middle" x="639" y="-175.8" font-family="Times,serif" font-size="14.00">AuthService</text>
</g>
<!-- AuthService&#45;&gt;AuthModule -->
<g id="edge7" class="edge">
<title>AuthService&#45;&gt;AuthModule</title>
<path fill="none" stroke="black" d="M639,-198.22C639,-218.37 639,-248 639,-248 639,-248 481.72,-248 481.72,-248"/>
<polygon fill="black" stroke="black" points="481.72,-244.5 471.72,-248 481.72,-251.5 481.72,-244.5"/>
</g>
<!-- PostsRepository -->
<g id="node8" class="node">
<title>PostsRepository</title>
<ellipse fill="#fdb462" stroke="black" cx="548" cy="-104" rx="73.61" ry="18"/>
<text text-anchor="middle" x="548" y="-99.8" font-family="Times,serif" font-size="14.00">PostsRepository</text>
</g>
<!-- PostsRepository&#45;&gt;PostsModule -->
<g id="edge8" class="edge">
<title>PostsRepository&#45;&gt;PostsModule</title>
<path fill="none" stroke="black" d="M495.98,-116.89C495.98,-116.89 495.98,-151.91 495.98,-151.91"/>
<polygon fill="black" stroke="black" points="492.48,-151.91 495.98,-161.91 499.48,-151.91 492.48,-151.91"/>
</g>
<!-- PostsService -->
<g id="node9" class="node">
<title>PostsService</title>
<ellipse fill="#fdb462" stroke="black" cx="700" cy="-104" rx="60.27" ry="18"/>
<text text-anchor="middle" x="700" y="-99.8" font-family="Times,serif" font-size="14.00">PostsService</text>
</g>
<!-- PostsService&#45;&gt;PostsModule -->
<g id="edge9" class="edge">
<title>PostsService&#45;&gt;PostsModule</title>
<path fill="none" stroke="black" d="M668.96,-119.49C668.96,-132.5 668.96,-149 668.96,-149 668.96,-149 517.77,-149 517.77,-149 517.77,-149 517.77,-151.97 517.77,-151.97"/>
<polygon fill="black" stroke="black" points="514.27,-151.97 517.77,-161.97 521.27,-151.97 514.27,-151.97"/>
</g>
<!-- UsersRepository -->
<g id="node11" class="node">
<title>UsersRepository</title>
<ellipse fill="#fdb462" stroke="black" cx="99" cy="-104" rx="75.3" ry="18"/>
<text text-anchor="middle" x="99" y="-99.8" font-family="Times,serif" font-size="14.00">UsersRepository</text>
</g>
<!-- UsersRepository&#45;&gt;UsersModule -->
<g id="edge11" class="edge">
<title>UsersRepository&#45;&gt;UsersModule</title>
<path fill="none" stroke="black" d="M136.89,-119.63C136.89,-127.75 136.89,-136 136.89,-136 136.89,-136 371.76,-136 371.76,-136 371.76,-136 371.76,-151.85 371.76,-151.85"/>
<polygon fill="black" stroke="black" points="368.26,-151.85 371.76,-161.85 375.26,-151.85 368.26,-151.85"/>
</g>
<!-- UsersService -->
<g id="node12" class="node">
<title>UsersService</title>
<ellipse fill="#fdb462" stroke="black" cx="254" cy="-104" rx="61.95" ry="18"/>
<text text-anchor="middle" x="254" y="-99.8" font-family="Times,serif" font-size="14.00">UsersService</text>
</g>
<!-- UsersService&#45;&gt;UsersModule -->
<g id="edge12" class="edge">
<title>UsersService&#45;&gt;UsersModule</title>
<path fill="none" stroke="black" d="M316.1,-104C325.35,-104 331.85,-104 331.85,-104 331.85,-104 331.85,-180 331.85,-180 331.85,-180 332.76,-180 332.76,-180"/>
<polygon fill="black" stroke="black" points="330.96,-183.5 340.96,-180 330.96,-176.5 330.96,-183.5"/>
</g>
</g>
</svg>
